<?xml version="1.0" encoding="UTF-8" standalone="no"?>
<svg
   width="233.82419"
   height="167.6976"
   viewBox="0 0 2338.2419 1676.976"
   version="1.1"
   xml:space="preserve"
   style="clip-rule:evenodd;fill-rule:evenodd;stroke-linejoin:round;stroke-miterlimit:2"
   id="svg9"
   xmlns="http://www.w3.org/2000/svg"
   xmlns:svg="http://www.w3.org/2000/svg">
  <g
     style="fill:#818181;fill-opacity:1;stroke:none;stroke-opacity:1"
     transform="translate(-59.861,-54.861)">
    <rect
       x="59.861"
       y="502.12201"
       width="779.414"
       height="111.731"
       style="fill:#818181;fill-opacity:1;stroke:none;stroke-opacity:1" />
    <path
       d="m 59.861,188.988 h 255.061 c 21.456,0 33.935,18.5 33.935,40.503 V 480.173 H 277.703 V 262.331 H 236.105 V 480.173 H 171.519 V 262.331 H 131.015 V 480.173 H 59.861 Z"
       style="fill:#818181;fill-opacity:1;fill-rule:nonzero;stroke:none;stroke-opacity:1" />
    <rect
       x="383.88699"
       y="188.98801"
       width="71.153999"
       height="291.186"
       style="fill:#818181;fill-opacity:1;stroke:none;stroke-opacity:1" />
    <path
       d="m 488.977,188.988 h 211.274 c 21.455,0 33.935,18.5 33.935,40.503 v 214.558 c 0,27.257 -11.385,36.124 -36.125,36.124 H 488.977 V 295.172 h 72.249 V 409.019 H 663.031 V 254.669 H 488.977 Z"
       style="fill:#818181;fill-opacity:1;fill-rule:nonzero;stroke:none;stroke-opacity:1" />
    <rect
       x="767.026"
       y="188.98801"
       width="72.249001"
       height="291.186"
       style="fill:#818181;fill-opacity:1;stroke:none;stroke-opacity:1" />
    <path
       d="m 136.847,161.469 c -6.422,3.611 -14.318,5.417 -23.688,5.417 -15.424,0 -28.057,-4.887 -37.901,-14.662 -10.265,-9.823 -15.397,-23.257 -15.397,-40.303 0,-17.238 5.185,-31.058 15.555,-41.459 10.37,-10.4 24.083,-15.601 41.138,-15.601 14.792,0 26.676,3.431 35.651,10.293 8.975,6.861 14.12,15.42 15.436,25.676 h -23.924 c -1.843,-7.27 -6.344,-12.35 -13.503,-15.24 -4,-1.589 -8.448,-2.383 -13.344,-2.383 -9.37,0 -17.068,3.238 -23.096,9.715 -6.027,6.476 -9.041,16.215 -9.041,29.216 0,13.097 3.264,22.366 9.791,27.807 6.528,5.441 13.95,8.162 22.267,8.162 8.159,0 14.845,-2.155 20.056,-6.464 5.211,-4.31 8.422,-9.956 9.633,-16.938 h -26.925 v -17.768 h 48.481 v 57.132 h -16.108 l -2.447,-13.29 c -4.685,5.056 -8.897,8.619 -12.634,10.69 z"
       style="fill:#818181;fill-opacity:1;fill-rule:nonzero;stroke:none;stroke-opacity:1" />
    <path
       d="m 272.263,117.555 h -56.535 v 27.374 h 64.431 v 19.14 H 191.961 V 57.606 h 85.356 v 18.851 h -61.589 v 22.607 h 56.535 z"
       style="fill:#818181;fill-opacity:1;fill-rule:nonzero;stroke:none;stroke-opacity:1" />
    <path
       d="M 393.23,164.069 H 368.911 L 321.377,88.447 v 75.622 H 298.715 V 57.606 h 25.504 l 46.35,74.322 V 57.606 h 22.661 z"
       style="fill:#818181;fill-opacity:1;fill-rule:nonzero;stroke:none;stroke-opacity:1" />
    <path
       d="m 496.905,117.555 h -56.536 v 27.374 h 64.432 v 19.14 H 416.602 V 57.606 h 85.356 v 18.851 h -61.589 v 22.607 h 56.536 z"
       style="fill:#818181;fill-opacity:1;fill-rule:nonzero;stroke:none;stroke-opacity:1" />
    <path
       d="m 573.18,122.322 h -25.109 v 41.747 H 524.304 V 57.606 h 57.088 c 8.159,0.144 14.436,1.059 18.832,2.744 4.395,1.686 8.12,4.166 11.173,7.44 2.527,2.696 4.527,5.682 6.001,8.956 1.474,3.274 2.211,7.006 2.211,11.195 0,5.056 -1.395,10.028 -4.185,14.915 -2.79,4.888 -7.396,8.343 -13.818,10.365 5.369,1.974 9.172,4.779 11.409,8.415 2.238,3.635 3.356,9.184 3.356,16.648 v 7.15 c 0,4.864 0.211,8.162 0.632,9.896 0.632,2.744 2.106,4.767 4.422,6.067 v 2.672 h -26.768 c -0.737,-2.359 -1.263,-4.261 -1.579,-5.706 -0.632,-2.985 -0.974,-6.043 -1.026,-9.173 l -0.158,-9.895 c -0.106,-6.789 -1.461,-11.315 -4.067,-13.579 -2.605,-2.263 -7.488,-3.394 -14.647,-3.394 z m 14.766,-19.357 c 4.843,-2.023 7.264,-6.019 7.264,-11.99 0,-6.452 -2.343,-10.786 -7.027,-13.001 -2.632,-1.252 -6.58,-1.878 -11.844,-1.878 h -28.268 v 28.602 h 27.557 c 5.474,0 9.58,-0.578 12.318,-1.733 z"
       style="fill:#818181;fill-opacity:1;fill-rule:nonzero;stroke:none;stroke-opacity:1" />
    <path
       d="M 708.676,142.184 H 665.8 l -8.054,21.885 H 632.321 L 673.854,57.606 h 27.478 l 41.217,106.463 h -26.372 z m -6.791,-18.346 -14.529,-41.892 -15.002,41.892 z"
       style="fill:#818181;fill-opacity:1;fill-rule:nonzero;stroke:none;stroke-opacity:1" />
    <path
       d="m 757.315,57.606 h 24.32 v 87.323 h 57.64 v 19.14 h -81.96 z"
       style="fill:#818181;fill-opacity:1;fill-rule:nonzero;stroke:none;stroke-opacity:1" />
  </g>
</svg>
