<svg xmlns="http://www.w3.org/2000/svg" viewBox="0 0 1840 1023">
  <path d="M 117,21.5 C 82.2,27.8 53.7,50.3 36.6,84.8 C 26.5,105 21.6,125.3 19.9,153.5 C 19.2,165.7 19,289.3 19.2,535 C 19.6,868.3 19.7,899.4 21.3,909.4 C 30,966.1 54,991.3 108.2,1000.7 C 117.9,1002.4 138.3,1002.5 480.2,1002.7 L 842,1003 L 842,697.5 L 842,392 L 645,392 L 448,392 L 448,498 L 448,604 L 537,604 L 626,604 L 626,697.5 L 626,791 L 428.5,791 L 231,791 L 231,501.5 L 231,212 L 536.5,212 L 842,212 L 842,116 L 842,20 L 483.3,20.1 C 184.5,20.2 123.2,20.4 117,21.5" fill="#818181" />
  <path d="M 1096,21.5 C 1048.8,30.1 1013.8,68.3 1002.5,123.4 C 998.1,144.6 997.8,159.6 998.3,334.5 C 998.6,478.8 998.9,498.7 1000.3,508.4 C 1008.8,564.9 1033,590.3 1087.2,599.7 C 1096.9,601.3 1113.4,601.5 1353.3,601.7 L 1609,602 L 1609,696.5 L 1609,791 L 1303.5,791 L 998,791 L 998,897 L 998,1003 L 1360.8,1002.7 C 1701.9,1002.5 1724.1,1002.4 1733,1000.7 C 1786.3,990.8 1809.7,966.3 1818.7,911 C 1820.2,901.5 1820.4,883.9 1820.8,720.5 C 1821.1,533.3 1821,523.6 1817,503.8 C 1807.1,455.1 1777.4,418.1 1738,405.1 C 1720,399.2 1740.2,399.6 1463.3,399.3 L 1210,398.9 L 1210,305.5 L 1210,212 L 1515.5,212 L 1821,212 L 1821,116 L 1821,20 L 1462.3,20.1 C 1163.5,20.2 1102.2,20.4 1096,21.5" fill="#818181"
        transform="translate(-60,0)" />
</svg>
