<?xml version="1.0" encoding="UTF-8" standalone="no"?>

<svg
   width="4.9702392mm"
   height="3.9749522mm"
   viewBox="0 0 4.9702392 3.9749523"
   version="1.1"
   id="svg1"
   xmlns="http://www.w3.org/2000/svg"
   xmlns:svg="http://www.w3.org/2000/svg">
  <g
     transform="translate(-47.155066,-60.54884)">
    <path
       style="fill:#b3b3cc;fill-opacity:1;stroke-width:0.264583"
       d="m 50.680432,61.051135 q -0.235645,0 -0.235645,0.244947 v 0.762744 q 0,0.232544 0.235645,0.232544 h 0.821655 q 0.279053,0 0.449585,0.198437 0.173633,0.198438 0.173633,0.47439 v 0.868164 q 0,0.285254 -0.186035,0.489892 -0.186035,0.201539 -0.468189,0.201539 H 50.5099 q -0.303858,0 -0.47439,-0.195337 -0.173633,-0.195337 -0.173633,-0.499195 h 0.533301 q -0.0062,0.108521 0.05271,0.15503 0.06201,0.04341 0.16123,0.04341 h 0.728638 q 0.235645,0 0.235645,-0.232544 V 63.03241 q 0,-0.241846 -0.235645,-0.241846 h -0.790649 q -0.282154,0 -0.468189,-0.204639 -0.186035,-0.204638 -0.186035,-0.489892 v -0.868164 q 0,-0.279053 0.173633,-0.477491 0.173633,-0.198437 0.449585,-0.198437 h 0.961182 q 0.285253,0 0.452685,0.189136 0.164331,0.189135 0.164331,0.483691 h -0.533301 q 0.0062,-0.173633 -0.21394,-0.173633 z" />
    <path
       style="fill:#b3b3cc;fill-opacity:1;stroke-width:0.264583"
       d="m 49.340979,62.480505 q 0.189136,0 0.189136,0.142627 v 1.897559 H 48.990613 V 64.35946 q -0.186035,0.161231 -0.434082,0.161231 h -0.713135 q -0.285254,0 -0.486792,-0.182935 -0.201538,-0.182934 -0.201538,-0.458886 v -2.675806 q 0,-0.282153 0.235644,-0.468188 0.235645,-0.186036 0.520899,-0.186036 h 0.936377 q 0.275952,0 0.47749,0.189136 0.198438,0.189136 0.198438,0.465088 v 0.254248 h -0.561207 q 0,-0.207739 -0.0248,-0.275952 -0.04961,-0.142627 -0.220142,-0.142627 H 47.94882 q -0.120923,0 -0.176733,0.07751 -0.05581,0.07751 -0.05581,0.189135 v 2.499073 q 0,0.232544 0.232544,0.232544 h 0.570508 q 0.176733,0 0.303857,-0.124024 0.127124,-0.124023 0.127124,-0.297656 v -0.595308 h -0.5023 v -0.396875 q 0,-0.111621 0.05581,-0.130224 0.05581,-0.0186 0.111621,-0.0124 z" />
  </g>
</svg>
