<svg xmlns="http://www.w3.org/2000/svg" viewBox="0 0 200 200">
  <g id="knob">
    <circle class="knob-back" cx="100" cy="100" r="90.800" fill="#383838"/>
    <path class="knob-body" d="M 185.200 100.000 L 185.292 100.744 L 185.562 101.493 L 185.991 102.252 L 186.547 103.022 L 187.192 103.807 L 187.879 104.606 L 188.559 105.417 L 189.182 106.236 L 189.703 107.060 L 190.081 107.881 L 190.287 108.694 L 190.303 109.491 L 190.122 110.268 L 189.751 111.020 L 189.210 111.745 L 188.530 112.442 L 187.750 113.114 L 186.917 113.766 L 186.078 114.405 L 185.284 115.038 L 184.580 115.676 L 184.003 116.329 L 183.583 117.005 L 183.338 117.714 L 183.274 118.461 L 183.382 119.250 L 183.643 120.081 L 184.028 120.950 L 184.495 121.852 L 185.001 122.776 L 185.498 123.711 L 185.937 124.642 L 186.275 125.556 L 186.474 126.438 L 186.507 127.275 L 186.356 128.059 L 186.017 128.781 L 185.498 129.439 L 184.819 130.036 L 184.009 130.577 L 183.106 131.072 L 182.155 131.536 L 181.202 131.987 L 180.294 132.441 L 179.472 132.918 L 178.772 133.437 L 178.221 134.011 L 177.834 134.654 L 177.616 135.371 L 177.557 136.166 L 177.640 137.033 L 177.836 137.963 L 178.106 138.942 L 178.409 139.951 L 178.700 140.969 L 178.936 141.971 L 179.076 142.935 L 179.087 143.839 L 178.945 144.665 L 178.635 145.400 L 178.154 146.036 L 177.509 146.572 L 176.720 147.014 L 175.815 147.375 L 174.830 147.672 L 173.803 147.928 L 172.778 148.170 L 171.795 148.426 L 170.891 148.722 L 170.099 149.084 L 169.440 149.531 L 168.928 150.079 L 168.565 150.736 L 168.343 151.500 L 168.244 152.366 L 168.242 153.316 L 168.302 154.330 L 168.389 155.380 L 168.462 156.436 L 168.484 157.465 L 168.421 158.437 L 168.245 159.324 L 167.934 160.103 L 167.478 160.757 L 166.874 161.279 L 166.133 161.670 L 165.269 161.938 L 164.309 162.102 L 163.283 162.188 L 162.225 162.225 L 161.172 162.249 L 160.157 162.295 L 159.212 162.397 L 158.362 162.586 L 157.625 162.886 L 157.010 163.316 L 156.518 163.882 L 156.142 164.584 L 155.866 165.410 L 155.665 166.339 L 155.514 167.344 L 155.380 168.389 L 155.232 169.437 L 155.040 170.448 L 154.776 171.386 L 154.419 172.217 L 153.953 172.914 L 153.371 173.459 L 152.672 173.844 L 151.866 174.072 L 150.965 174.155 L 149.992 174.116 L 148.970 173.986 L 147.928 173.803 L 146.893 173.607 L 145.891 173.441 L 144.945 173.344 L 144.074 173.352 L 143.291 173.493 L 142.600 173.785 L 142.001 174.237 L 141.488 174.846 L 141.045 175.596 L 140.656 176.463 L 140.299 177.414 L 139.951 178.409 L 139.589 179.403 L 139.190 180.352 L 138.737 181.215 L 138.215 181.953 L 137.615 182.538 L 136.932 182.950 L 136.168 183.182 L 135.332 183.237 L 134.434 183.131 L 133.490 182.890 L 132.518 182.551 L 131.536 182.155 L 130.564 181.748 L 129.619 181.377 L 128.714 181.086 L 127.861 180.913 L 127.065 180.888 L 126.328 181.030 L 125.649 181.348 L 125.020 181.836 L 124.431 182.478 L 123.870 183.245 L 123.323 184.101 L 122.776 185.001 L 122.215 185.899 L 121.628 186.744 L 121.005 187.494 L 120.341 188.107 L 119.632 188.555 L 118.878 188.816 L 118.084 188.884 L 117.254 188.764 L 116.398 188.473 L 115.524 188.042 L 114.644 187.508 L 113.766 186.917 L 112.900 186.317 L 112.052 185.757 L 111.228 185.284 L 110.429 184.937 L 109.656 184.747 L 108.906 184.733 L 108.175 184.903 L 107.458 185.249 L 106.749 185.755 L 106.041 186.389 L 105.328 187.113 L 104.606 187.879 L 103.870 188.640 L 103.120 189.346 L 102.355 189.949 L 101.578 190.411 L 100.792 190.701 L 100.000 190.800 L 99.208 190.701 L 98.422 190.411 L 97.645 189.949 L 96.880 189.346 L 96.130 188.640 L 95.394 187.879 L 94.672 187.113 L 93.959 186.389 L 93.251 185.755 L 92.542 185.249 L 91.825 184.903 L 91.094 184.733 L 90.344 184.747 L 89.571 184.937 L 88.772 185.284 L 87.948 185.757 L 87.100 186.317 L 86.234 186.917 L 85.356 187.508 L 84.476 188.042 L 83.602 188.473 L 82.746 188.764 L 81.916 188.884 L 81.122 188.816 L 80.368 188.555 L 79.659 188.107 L 78.995 187.494 L 78.372 186.744 L 77.785 185.899 L 77.224 185.001 L 76.677 184.101 L 76.130 183.245 L 75.569 182.478 L 74.980 181.836 L 74.351 181.348 L 73.672 181.030 L 72.935 180.888 L 72.139 180.913 L 71.286 181.086 L 70.381 181.377 L 69.436 181.748 L 68.464 182.155 L 67.482 182.551 L 66.510 182.890 L 65.566 183.131 L 64.668 183.237 L 63.832 183.182 L 63.068 182.950 L 62.385 182.538 L 61.785 181.953 L 61.263 181.215 L 60.810 180.352 L 60.411 179.403 L 60.049 178.409 L 59.701 177.414 L 59.344 176.463 L 58.955 175.596 L 58.512 174.846 L 57.999 174.237 L 57.400 173.785 L 56.709 173.493 L 55.926 173.352 L 55.055 173.344 L 54.109 173.441 L 53.107 173.607 L 52.072 173.803 L 51.030 173.986 L 50.008 174.116 L 49.035 174.155 L 48.134 174.072 L 47.328 173.844 L 46.629 173.459 L 46.047 172.914 L 45.581 172.217 L 45.224 171.386 L 44.960 170.448 L 44.768 169.437 L 44.620 168.389 L 44.486 167.344 L 44.335 166.339 L 44.134 165.410 L 43.858 164.584 L 43.482 163.882 L 42.990 163.316 L 42.375 162.886 L 41.638 162.586 L 40.788 162.397 L 39.843 162.295 L 38.828 162.249 L 37.775 162.225 L 36.717 162.188 L 35.691 162.102 L 34.731 161.938 L 33.867 161.670 L 33.126 161.279 L 32.522 160.757 L 32.066 160.103 L 31.755 159.324 L 31.579 158.437 L 31.516 157.465 L 31.538 156.436 L 31.611 155.380 L 31.698 154.330 L 31.758 153.316 L 31.756 152.366 L 31.657 151.500 L 31.435 150.736 L 31.072 150.079 L 30.560 149.531 L 29.901 149.084 L 29.109 148.722 L 28.205 148.426 L 27.222 148.170 L 26.197 147.928 L 25.170 147.672 L 24.185 147.375 L 23.280 147.014 L 22.491 146.572 L 21.846 146.036 L 21.365 145.400 L 21.055 144.665 L 20.913 143.839 L 20.924 142.935 L 21.064 141.971 L 21.300 140.969 L 21.591 139.951 L 21.894 138.942 L 22.164 137.963 L 22.360 137.033 L 22.443 136.166 L 22.384 135.371 L 22.166 134.654 L 21.779 134.011 L 21.228 133.437 L 20.528 132.918 L 19.706 132.441 L 18.798 131.987 L 17.845 131.536 L 16.894 131.072 L 15.991 130.577 L 15.181 130.036 L 14.502 129.439 L 13.983 128.781 L 13.644 128.059 L 13.493 127.275 L 13.526 126.438 L 13.725 125.556 L 14.063 124.642 L 14.502 123.711 L 14.999 122.776 L 15.505 121.852 L 15.972 120.950 L 16.357 120.081 L 16.618 119.250 L 16.726 118.461 L 16.662 117.714 L 16.417 117.005 L 15.997 116.329 L 15.420 115.676 L 14.716 115.038 L 13.922 114.405 L 13.083 113.766 L 12.250 113.114 L 11.470 112.442 L 10.790 111.745 L 10.249 111.020 L 9.878 110.268 L 9.697 109.491 L 9.713 108.694 L 9.919 107.881 L 10.297 107.060 L 10.818 106.236 L 11.441 105.417 L 12.121 104.606 L 12.808 103.807 L 13.453 103.022 L 14.009 102.252 L 14.438 101.493 L 14.708 100.744 L 14.800 100.000 L 14.708 99.256 L 14.438 98.507 L 14.009 97.748 L 13.453 96.978 L 12.808 96.193 L 12.121 95.394 L 11.441 94.583 L 10.818 93.764 L 10.297 92.940 L 9.919 92.119 L 9.713 91.306 L 9.697 90.509 L 9.878 89.732 L 10.249 88.980 L 10.790 88.255 L 11.470 87.558 L 12.250 86.886 L 13.083 86.234 L 13.922 85.595 L 14.716 84.962 L 15.420 84.324 L 15.997 83.671 L 16.417 82.995 L 16.662 82.286 L 16.726 81.539 L 16.618 80.750 L 16.357 79.919 L 15.972 79.050 L 15.505 78.148 L 14.999 77.224 L 14.502 76.289 L 14.063 75.358 L 13.725 74.444 L 13.526 73.562 L 13.493 72.725 L 13.644 71.941 L 13.983 71.219 L 14.502 70.561 L 15.181 69.964 L 15.991 69.423 L 16.894 68.928 L 17.845 68.464 L 18.798 68.013 L 19.706 67.559 L 20.528 67.082 L 21.228 66.563 L 21.779 65.989 L 22.166 65.346 L 22.384 64.629 L 22.443 63.834 L 22.360 62.967 L 22.164 62.037 L 21.894 61.058 L 21.591 60.049 L 21.300 59.031 L 21.064 58.029 L 20.924 57.065 L 20.913 56.161 L 21.055 55.335 L 21.365 54.600 L 21.846 53.964 L 22.491 53.428 L 23.280 52.986 L 24.185 52.625 L 25.170 52.328 L 26.197 52.072 L 27.222 51.830 L 28.205 51.574 L 29.109 51.278 L 29.901 50.916 L 30.560 50.469 L 31.072 49.921 L 31.435 49.264 L 31.657 48.500 L 31.756 47.634 L 31.758 46.684 L 31.698 45.670 L 31.611 44.620 L 31.538 43.564 L 31.516 42.535 L 31.579 41.563 L 31.755 40.676 L 32.066 39.897 L 32.522 39.243 L 33.126 38.721 L 33.867 38.330 L 34.731 38.062 L 35.691 37.898 L 36.717 37.812 L 37.775 37.775 L 38.828 37.751 L 39.843 37.705 L 40.788 37.603 L 41.638 37.414 L 42.375 37.114 L 42.990 36.684 L 43.482 36.118 L 43.858 35.416 L 44.134 34.590 L 44.335 33.661 L 44.486 32.656 L 44.620 31.611 L 44.768 30.563 L 44.960 29.552 L 45.224 28.614 L 45.581 27.783 L 46.047 27.086 L 46.629 26.541 L 47.328 26.156 L 48.134 25.928 L 49.035 25.845 L 50.008 25.884 L 51.030 26.014 L 52.072 26.197 L 53.107 26.393 L 54.109 26.559 L 55.055 26.656 L 55.926 26.648 L 56.709 26.507 L 57.400 26.215 L 57.999 25.763 L 58.512 25.154 L 58.955 24.404 L 59.344 23.537 L 59.701 22.586 L 60.049 21.591 L 60.411 20.597 L 60.810 19.648 L 61.263 18.785 L 61.785 18.047 L 62.385 17.462 L 63.068 17.050 L 63.832 16.818 L 64.668 16.763 L 65.566 16.869 L 66.510 17.110 L 67.482 17.449 L 68.464 17.845 L 69.436 18.252 L 70.381 18.623 L 71.286 18.914 L 72.139 19.087 L 72.935 19.112 L 73.672 18.970 L 74.351 18.652 L 74.980 18.164 L 75.569 17.522 L 76.130 16.755 L 76.677 15.899 L 77.224 14.999 L 77.785 14.101 L 78.372 13.256 L 78.995 12.506 L 79.659 11.893 L 80.368 11.445 L 81.122 11.184 L 81.916 11.116 L 82.746 11.236 L 83.602 11.527 L 84.476 11.958 L 85.356 12.492 L 86.234 13.083 L 87.100 13.683 L 87.948 14.243 L 88.772 14.716 L 89.571 15.063 L 90.344 15.253 L 91.094 15.267 L 91.825 15.097 L 92.542 14.751 L 93.251 14.245 L 93.959 13.611 L 94.672 12.887 L 95.394 12.121 L 96.130 11.360 L 96.880 10.654 L 97.645 10.051 L 98.422 9.589 L 99.208 9.299 L 100.000 9.200 L 100.792 9.299 L 101.578 9.589 L 102.355 10.051 L 103.120 10.654 L 103.870 11.360 L 104.606 12.121 L 105.328 12.887 L 106.041 13.611 L 106.749 14.245 L 107.458 14.751 L 108.175 15.097 L 108.906 15.267 L 109.656 15.253 L 110.429 15.063 L 111.228 14.716 L 112.052 14.243 L 112.900 13.683 L 113.766 13.083 L 114.644 12.492 L 115.524 11.958 L 116.398 11.527 L 117.254 11.236 L 118.084 11.116 L 118.878 11.184 L 119.632 11.445 L 120.341 11.893 L 121.005 12.506 L 121.628 13.256 L 122.215 14.101 L 122.776 14.999 L 123.323 15.899 L 123.870 16.755 L 124.431 17.522 L 125.020 18.164 L 125.649 18.652 L 126.328 18.970 L 127.065 19.112 L 127.861 19.087 L 128.714 18.914 L 129.619 18.623 L 130.564 18.252 L 131.536 17.845 L 132.518 17.449 L 133.490 17.110 L 134.434 16.869 L 135.332 16.763 L 136.168 16.818 L 136.932 17.050 L 137.615 17.462 L 138.215 18.047 L 138.737 18.785 L 139.190 19.648 L 139.589 20.597 L 139.951 21.591 L 140.299 22.586 L 140.656 23.537 L 141.045 24.404 L 141.488 25.154 L 142.001 25.763 L 142.600 26.215 L 143.291 26.507 L 144.074 26.648 L 144.945 26.656 L 145.891 26.559 L 146.893 26.393 L 147.928 26.197 L 148.970 26.014 L 149.992 25.884 L 150.965 25.845 L 151.866 25.928 L 152.672 26.156 L 153.371 26.541 L 153.953 27.086 L 154.419 27.783 L 154.776 28.614 L 155.040 29.552 L 155.232 30.563 L 155.380 31.611 L 155.514 32.656 L 155.665 33.661 L 155.866 34.590 L 156.142 35.416 L 156.518 36.118 L 157.010 36.684 L 157.625 37.114 L 158.362 37.414 L 159.212 37.603 L 160.157 37.705 L 161.172 37.751 L 162.225 37.775 L 163.283 37.812 L 164.309 37.898 L 165.269 38.062 L 166.133 38.330 L 166.874 38.721 L 167.478 39.243 L 167.934 39.897 L 168.245 40.676 L 168.421 41.563 L 168.484 42.535 L 168.462 43.564 L 168.389 44.620 L 168.302 45.670 L 168.242 46.684 L 168.244 47.634 L 168.343 48.500 L 168.565 49.264 L 168.928 49.921 L 169.440 50.469 L 170.099 50.916 L 170.891 51.278 L 171.795 51.574 L 172.778 51.830 L 173.803 52.072 L 174.830 52.328 L 175.815 52.625 L 176.720 52.986 L 177.509 53.428 L 178.154 53.964 L 178.635 54.600 L 178.945 55.335 L 179.087 56.161 L 179.076 57.065 L 178.936 58.029 L 178.700 59.031 L 178.409 60.049 L 178.106 61.058 L 177.836 62.037 L 177.640 62.967 L 177.557 63.834 L 177.616 64.629 L 177.834 65.346 L 178.221 65.989 L 178.772 66.563 L 179.472 67.082 L 180.294 67.559 L 181.202 68.013 L 182.155 68.464 L 183.106 68.928 L 184.009 69.423 L 184.819 69.964 L 185.498 70.561 L 186.017 71.219 L 186.356 71.941 L 186.507 72.725 L 186.474 73.562 L 186.275 74.444 L 185.937 75.358 L 185.498 76.289 L 185.001 77.224 L 184.495 78.148 L 184.028 79.050 L 183.643 79.919 L 183.382 80.750 L 183.274 81.539 L 183.338 82.286 L 183.583 82.995 L 184.003 83.671 L 184.580 84.324 L 185.284 84.962 L 186.078 85.595 L 186.917 86.234 L 187.750 86.886 L 188.530 87.558 L 189.210 88.255 L 189.751 88.980 L 190.122 89.732 L 190.303 90.509 L 190.287 91.306 L 190.081 92.119 L 189.703 92.940 L 189.182 93.764 L 188.559 94.583 L 187.879 95.394 L 187.192 96.193 L 186.547 96.978 L 185.991 97.748 L 185.562 98.507 L 185.292 99.256 Z" fill="#101010"/>
    <rect class="knob-indicator" x="95" y="6" width="10" height="30" rx="1.5" fill="#f8f4d2"/>
  </g>
</svg>
