<?xml version="1.0" encoding="UTF-8" standalone="no"?>

<svg
   width="15.799554mm"
   height="2.6246622mm"
   viewBox="0 0 15.799554 2.6246622"
   version="1.1"
   id="svg1"
   xmlns="http://www.w3.org/2000/svg"
   xmlns:svg="http://www.w3.org/2000/svg">
  <g
     transform="translate(-19.999999,-58.000002)">
    <path
       style="fill:#bbbbbb;stroke-width:0.264583"
       d="m 34.003912,59.806219 q 0,0.144638 0.05997,0.246944 0.05997,0.09878 0.15875,0.162277 0.09878,0.0635 0.229305,0.09172 0.134055,0.02822 0.282221,0.02822 0.119945,0 0.243416,-0.02117 0.123472,-0.02469 0.22225,-0.07408 0.09878,-0.04939 0.15875,-0.130528 0.0635,-0.08467 0.0635,-0.208138 0,-0.112889 -0.07408,-0.183444 -0.07408,-0.07056 -0.194027,-0.112889 -0.116416,-0.04586 -0.271638,-0.07408 -0.151694,-0.03175 -0.313972,-0.0635 -0.15875,-0.03175 -0.313971,-0.07761 -0.151694,-0.04586 -0.271639,-0.123472 -0.116416,-0.08114 -0.190499,-0.201083 -0.07408,-0.119944 -0.07408,-0.303388 0,-0.194027 0.08467,-0.335138 0.08467,-0.141111 0.225777,-0.232833 0.141111,-0.09172 0.3175,-0.137583 0.179916,-0.04586 0.366888,-0.04586 0.222249,0 0.409221,0.05292 0.186972,0.04939 0.321027,0.155222 0.137583,0.102306 0.215194,0.261055 0.07761,0.15875 0.08467,0.370416 h -0.34925 q -0.0071,-0.275166 -0.194027,-0.416277 -0.186972,-0.141111 -0.486832,-0.141111 -0.116417,0 -0.232833,0.02822 -0.116417,0.02469 -0.208139,0.08114 -0.09172,0.05292 -0.148166,0.137583 -0.05644,0.08114 -0.05644,0.1905 0,0.134055 0.07408,0.215194 0.07408,0.08114 0.194027,0.134055 0.123472,0.05292 0.278694,0.08819 0.155222,0.03175 0.317499,0.06703 0.165806,0.03175 0.321028,0.07408 0.155221,0.04233 0.275166,0.112889 0.123472,0.07055 0.197555,0.183444 0.07408,0.109361 0.07408,0.278694 0,0.211666 -0.09525,0.352777 -0.09525,0.141111 -0.250472,0.225777 -0.151694,0.08467 -0.342193,0.119944 -0.186972,0.03528 -0.377472,0.03528 -0.222249,0 -0.419804,-0.04233 -0.194028,-0.04233 -0.342194,-0.137583 -0.144639,-0.09878 -0.229305,-0.254 -0.08467,-0.155222 -0.08819,-0.377471 z" />
    <path
       style="fill:#bbbbbb;stroke-width:0.264583"
       d="m 31.41497,58.077612 v 1.269997 q 0,0.208138 0.0388,0.384527 0.04233,0.17286 0.134056,0.29986 0.09172,0.127 0.243416,0.201083 0.155222,0.07055 0.384527,0.07055 0.211666,0 0.366888,-0.06703 0.155222,-0.06703 0.253999,-0.186972 0.09878,-0.119944 0.144639,-0.282222 0.04939,-0.165805 0.04939,-0.36336 v -1.326441 h 0.366888 v 1.414635 q 0,0.261055 -0.07761,0.469194 -0.07408,0.208138 -0.225778,0.352777 -0.148166,0.144638 -0.370415,0.225777 -0.218722,0.07761 -0.507999,0.07761 -0.292805,0 -0.511527,-0.07761 -0.218722,-0.08114 -0.366888,-0.229305 -0.144639,-0.148166 -0.218722,-0.356305 -0.07055,-0.208138 -0.07055,-0.462138 v -1.414635 z" />
    <path
       style="fill:#bbbbbb;stroke-width:0.264583"
       d="m 28.707405,58.077612 h 1.210025 q 0.451555,0 0.684388,0.179916 0.232832,0.179916 0.232832,0.532693 0,0.246944 -0.123472,0.416277 -0.119944,0.169333 -0.328082,0.250472 0.243416,0.08114 0.342194,0.26811 0.09878,0.186972 0.09525,0.52211 0,0.03881 0,0.08114 0,0.04233 0,0.08467 0.0035,0.04233 0.01058,0.07761 0.01058,0.03528 0.03175,0.05644 h -0.366889 q -0.0388,-0.03528 -0.04233,-0.119945 0,-0.08819 0,-0.158749 0,-0.236361 -0.0388,-0.377472 -0.03881,-0.14111 -0.134055,-0.215194 -0.09525,-0.07761 -0.261055,-0.102305 -0.165806,-0.02469 -0.419805,-0.02469 h -0.525638 v 0.998359 H 28.70741 Z m 0.366888,0.282221 v 0.906637 h 0.71261 q 0.162277,0 0.289277,-0.02117 0.127,-0.02117 0.215194,-0.07408 0.09172,-0.05292 0.137583,-0.141111 0.04939,-0.09172 0.04939,-0.225777 0,-0.141111 -0.05292,-0.229305 -0.05292,-0.08819 -0.148166,-0.134055 -0.09525,-0.04939 -0.22225,-0.0635 -0.126999,-0.01764 -0.275166,-0.01764 z" />
    <path
       style="fill:#bbbbbb;stroke-width:0.264583"
       d="m 27.045829,60.624661 c -0.199907,0 -0.327237,-0.03057 -0.498922,-0.09172 -0.169333,-0.0635 -0.317499,-0.15287 -0.444499,-0.26811 -0.124648,-0.115241 -0.222249,-0.252824 -0.292805,-0.412749 -0.07056,-0.162277 -0.105833,-0.341018 -0.105833,-0.536221 0,-0.197555 0.0341,-0.376296 0.102305,-0.536221 0.07056,-0.162277 0.168157,-0.29986 0.292805,-0.412749 0.124648,-0.115241 0.271639,-0.204611 0.440971,-0.268111 0.171685,-0.0635 0.301367,-0.09525 0.505978,-0.09525 0.195203,0 0.31783,0.03175 0.484812,0.09525 0.16698,0.0635 0.311619,0.15287 0.433916,0.268111 0.124647,0.11524 0.221073,0.253999 0.289277,0.416277 0.07056,0.159925 0.105833,0.33749 0.105833,0.532693 0,0.195203 -0.03528,0.372768 -0.105833,0.532693 -0.07056,0.159925 -0.166981,0.297508 -0.289277,0.412749 -0.122297,0.115241 -0.268112,0.204611 -0.437444,0.268111 -0.166982,0.0635 -0.288433,0.09525 -0.481284,0.09525 z m 0,-0.29986 c 0.15287,0 0.233164,-0.02469 0.357812,-0.07408 0.127,-0.04939 0.235185,-0.118766 0.324555,-0.208139 0.08937,-0.08937 0.158749,-0.195203 0.208138,-0.317499 0.04939,-0.124648 0.07408,-0.261055 0.07408,-0.409221 0,-0.148167 -0.02469,-0.284574 -0.07408,-0.409222 -0.04704,-0.124647 -0.115244,-0.231656 -0.20461,-0.321027 -0.08937,-0.08937 -0.197556,-0.158749 -0.324555,-0.208138 -0.124648,-0.05174 -0.206118,-0.07761 -0.36134,-0.07761 -0.155222,0 -0.239043,0.02469 -0.368395,0.07408 -0.129351,0.04939 -0.239888,0.119942 -0.33161,0.211666 -0.09172,0.08937 -0.163453,0.19638 -0.215194,0.321027 -0.05174,0.124648 -0.07761,0.261055 -0.07761,0.409222 0,0.148166 0.02587,0.284573 0.07761,0.409221 0.05409,0.122296 0.127001,0.228129 0.218721,0.317499 0.09407,0.08937 0.204611,0.15875 0.331611,0.208139 0.129352,0.04939 0.211997,0.07408 0.364867,0.07408 z" />
    <path
       style="fill:#bbbbbb;stroke-width:0.264583"
       d="m 23.366361,58.077612 v 1.114775 h 1.665108 v -1.114775 h 0.366888 v 2.469439 h -0.366888 v -1.023054 h -1.665108 v 1.023054 h -0.366888 v -2.469439 z" />
    <path
       style="fill:#bbbbbb;stroke-width:0.264583"
       d="m 22.689149,59.714905 c -0.0047,0.15287 -0.02404,0.236416 -0.09927,0.358712 -0.07526,0.119944 -0.174036,0.201786 -0.296332,0.286453 -0.119945,0.08467 -0.257528,0.149342 -0.412749,0.194027 -0.155222,0.04704 -0.315148,0.07056 -0.479777,0.07056 -0.214018,0 -0.387374,-0.03057 -0.561411,-0.09172 -0.174037,-0.0635 -0.323379,-0.15287 -0.448027,-0.268111 C 20.266935,60.149585 20.170509,60.012002 20.102306,59.852077 20.034106,59.6898 20,59.511059 20,59.315856 c 0,-0.202259 0.03293,-0.384527 0.09878,-0.546805 0.06585,-0.162277 0.159927,-0.29986 0.282222,-0.412749 0.122296,-0.11524 0.270462,-0.203434 0.444499,-0.264582 C 20.999534,58.03057 21.175242,58 21.393963,58 c 0.174037,0 0.338666,0.01881 0.493888,0.05644 0.155222,0.03763 0.290453,0.08698 0.405694,0.164593 0.117592,0.07761 0.231161,0.199688 0.278693,0.278291 0.06229,0.08067 0.09668,0.169664 0.109361,0.334009 h -0.345721 c -0.0147,-0.111107 -0.03173,-0.124695 -0.08819,-0.207009 -0.05645,-0.08467 -0.129354,-0.134829 -0.218722,-0.18657 -0.08702,-0.05174 -0.185796,-0.0811 -0.296333,-0.10462 -0.110537,-0.02587 -0.221073,-0.03881 -0.33161,-0.03881 -0.155222,0 -0.278014,0.02587 -0.409717,0.07761 -0.131703,0.04939 -0.245768,0.118766 -0.342194,0.208139 -0.09407,0.08937 -0.168157,0.197555 -0.222249,0.324555 -0.05174,0.124647 -0.07761,0.261054 -0.07761,0.409221 0,0.148166 0.02587,0.284573 0.07761,0.409221 0.05409,0.122296 0.128176,0.228129 0.222249,0.317499 0.09643,0.08937 0.210491,0.15875 0.342194,0.208139 0.131703,0.04939 0.254495,0.07408 0.409717,0.07408 0.101129,0 0.206962,-0.01529 0.317499,-0.04586 0.112889,-0.03057 0.21637,-0.07526 0.310444,-0.134055 0.09407,-0.05879 0.171685,-0.110062 0.232833,-0.194731 0.06115,-0.08467 0.0734,-0.127055 0.07811,-0.23524 z" />
  </g>
</svg>
