<?xml version="1.0" encoding="UTF-8" standalone="no"?>

<svg
   width="23.777971mm"
   height="2.6070237mm"
   viewBox="0 0 23.777971 2.6070237"
   version="1.1"
   id="svg1"
   xmlns="http://www.w3.org/2000/svg"
   xmlns:svg="http://www.w3.org/2000/svg">
  <g
     transform="translate(-20,-42.000001)">
    <path
       style="fill:#bbbbbb;stroke-width:0.264583"
       d="m 41.40731,42.067028 h 2.370662 v 0.33161 h -1.015998 v 2.137829 h -0.366888 v -2.137829 h -0.991303 z" />
    <path
       style="fill:#bbbbbb;stroke-width:0.264583"
       d="m 38.821454,44.536467 v -2.469439 h 0.338665 v 0.01411 l 0.02117,-0.01411 1.689802,1.943801 v -1.943801 h 0.338666 v 2.469439 h -0.359833 l -1.689802,-1.933218 v 1.933218 z" />
    <path
       style="fill:#bbbbbb;stroke-width:0.264583"
       d="m 38.504454,42.067028 v 0.275166 h -1.438862 v 0.829026 h 1.438862 v 0.271638 h -1.438862 v 0.818443 h 1.438862 v 0.275166 h -1.80575 v -2.469439 z" />
    <path
       style="fill:#bbbbbb;stroke-width:0.264583"
       d="m 33.798879,42.067028 1.079498,2.091967 1.079497,-2.091967 h 0.388055 v 2.469439 h -0.366888 v -1.75683 l -0.906637,1.75683 h -0.388055 l -0.906637,-1.75683 v 1.75683 h -0.366888 v -2.469439 z" />
    <path
       style="fill:#bbbbbb;stroke-width:0.264583"
       d="m 31.110718,42.067028 v 1.269997 q 0,0.208138 0.0388,0.384527 0.04233,0.172861 0.134056,0.29986 0.09172,0.127 0.243416,0.201083 0.155222,0.07056 0.384527,0.07056 0.211666,0 0.366888,-0.06703 0.155222,-0.06703 0.253999,-0.186972 0.09878,-0.119944 0.144639,-0.282221 0.04939,-0.165806 0.04939,-0.363361 V 42.06703 h 0.366888 v 1.414636 q 0,0.261055 -0.07761,0.469193 -0.07408,0.208138 -0.225777,0.352777 -0.148167,0.144639 -0.370416,0.225777 -0.218722,0.07761 -0.507999,0.07761 -0.292805,0 -0.511527,-0.07761 -0.218722,-0.08114 -0.366888,-0.229305 -0.144639,-0.148166 -0.218722,-0.356305 -0.07055,-0.208138 -0.07055,-0.462137 V 42.06703 Z" />
    <path
       style="fill:#bbbbbb;stroke-width:0.264583"
       d="m 28.270861,42.067028 h 1.210025 q 0.451555,0 0.684388,0.179916 0.232832,0.179916 0.232832,0.532693 0,0.246944 -0.123471,0.416277 -0.119945,0.169333 -0.328083,0.250472 0.243416,0.08114 0.342194,0.26811 0.09878,0.186972 0.09525,0.52211 0,0.03881 0,0.08114 0,0.04233 0,0.08467 0.0035,0.04233 0.01058,0.07761 0.01058,0.03528 0.03175,0.05644 h -0.366888 q -0.03881,-0.03528 -0.04233,-0.119944 0,-0.08819 0,-0.15875 0,-0.236361 -0.03881,-0.377471 -0.03881,-0.141111 -0.134055,-0.215194 -0.09525,-0.07761 -0.261055,-0.102306 -0.165806,-0.02469 -0.419805,-0.02469 h -0.525638 v 0.998359 h -0.366888 z m 0.366888,0.282221 v 0.906637 h 0.71261 q 0.162277,0 0.289277,-0.02117 0.127,-0.02117 0.215194,-0.07408 0.09172,-0.05292 0.137583,-0.141111 0.04939,-0.09172 0.04939,-0.225778 0,-0.14111 -0.05292,-0.229305 -0.05292,-0.08819 -0.148166,-0.134055 -0.09525,-0.04939 -0.22225,-0.0635 -0.126999,-0.01764 -0.275166,-0.01764 z" />
    <path
       style="fill:#bbbbbb;stroke-width:0.264583"
       d="m 25.688531,42.067028 h 2.370661 v 0.33161 h -1.015998 v 2.137829 h -0.366888 v -2.137829 h -0.991303 z" />
    <path
       style="fill:#bbbbbb;stroke-width:0.264583"
       d="m 23.681228,43.795635 q 0,0.144639 0.05997,0.246944 0.05997,0.09878 0.15875,0.162277 0.09878,0.0635 0.229305,0.09172 0.134055,0.02822 0.282221,0.02822 0.119945,0 0.243417,-0.02117 0.123472,-0.02469 0.222249,-0.07408 0.09878,-0.04939 0.15875,-0.130528 0.0635,-0.08467 0.0635,-0.208138 0,-0.112889 -0.07408,-0.183444 -0.07408,-0.07056 -0.194027,-0.112889 -0.116416,-0.04586 -0.271638,-0.07408 -0.151694,-0.03175 -0.313972,-0.0635 -0.158749,-0.03175 -0.313971,-0.07761 -0.151694,-0.04586 -0.271639,-0.123472 -0.116416,-0.08114 -0.190499,-0.201083 -0.07408,-0.119944 -0.07408,-0.303388 0,-0.194027 0.08467,-0.335138 0.08467,-0.141111 0.225777,-0.232833 0.141111,-0.09172 0.3175,-0.137583 Q 24.203347,42 24.390319,42 q 0.222249,0 0.409221,0.05292 0.186972,0.04939 0.321027,0.155222 0.137583,0.102305 0.215194,0.261055 0.07761,0.158749 0.08467,0.370415 h -0.34925 q -0.0071,-0.275166 -0.194027,-0.416276 -0.186972,-0.141111 -0.486832,-0.141111 -0.116417,0 -0.232833,0.02822 -0.116416,0.02469 -0.208138,0.08114 -0.09172,0.05292 -0.148167,0.137583 -0.05644,0.08114 -0.05644,0.190499 0,0.134056 0.07408,0.215194 0.07408,0.08114 0.194027,0.134056 0.123472,0.05292 0.278694,0.08819 0.155222,0.03175 0.3175,0.06703 0.165805,0.03175 0.321027,0.07408 0.155222,0.04233 0.275166,0.112888 0.123472,0.07056 0.197555,0.183444 0.07408,0.109361 0.07408,0.278694 0,0.211666 -0.09525,0.352777 -0.09525,0.141111 -0.250471,0.225777 -0.151695,0.08467 -0.342194,0.119945 -0.186972,0.03528 -0.377472,0.03528 -0.222249,0 -0.419804,-0.04233 -0.194028,-0.04233 -0.342194,-0.137583 -0.144638,-0.09878 -0.229305,-0.253999 -0.08467,-0.155222 -0.08819,-0.377472 z" />
    <path
       style="fill:#bbbbbb;stroke-width:0.264583"
       d="m 20.702026,44.536467 v -2.469439 h 0.338666 v 0.01411 l 0.02117,-0.01411 1.689802,1.943801 v -1.943801 h 0.338666 v 2.469439 h -0.359833 l -1.689802,-1.933218 v 1.933218 z" />
    <path
       style="fill:#bbbbbb;stroke-width:0.264583"
       d="m 20,42.067028 h 0.366888 v 2.469439 H 20 Z" />
  </g>
</svg>
