<?xml version="1.0" encoding="UTF-8" standalone="no"?>

<svg
   width="20.124258mm"
   height="2.6070237mm"
   viewBox="0 0 20.124258 2.6070237"
   version="1.1"
   id="svg1"
   xmlns="http://www.w3.org/2000/svg"
   xmlns:svg="http://www.w3.org/2000/svg">
  <g
     transform="translate(-20,-62.000002)">
    <path
       style="fill:#bbbbbb;stroke-width:0.264583"
       d="m 37.753598,62.067026 h 2.370661 v 0.331611 h -1.015998 v 2.137828 H 38.741373 V 62.398637 H 37.75007 Z" />
    <path
       style="fill:#bbbbbb;stroke-width:0.264583"
       d="m 35.59261,62.067026 h 1.805891 v 0.275166 h -1.439003 v 1.008942 h 1.439003 V 63.6263 h -1.439003 v 0.910165 H 35.59261 Z" />
    <path
       style="fill:#bbbbbb;stroke-width:0.264583"
       d="m 34.872945,62.067026 h 0.366888 v 2.469439 h -0.366888 z" />
    <path
       style="fill:#bbbbbb;stroke-width:0.264583"
       d="m 32.467006,62.067026 v 1.114775 h 1.665108 v -1.114775 h 0.366888 v 2.469439 h -0.366888 v -1.023053 h -1.665108 v 1.023053 h -0.366888 v -2.469439 z" />
    <path
       style="fill:#bbbbbb;stroke-width:0.264583"
       d="m 29.955233,63.795633 q 0,0.144639 0.05997,0.246944 0.05997,0.09878 0.15875,0.162278 0.09878,0.0635 0.229305,0.09172 0.134055,0.02822 0.282222,0.02822 0.119944,0 0.243416,-0.02117 0.123472,-0.02469 0.222249,-0.07408 0.09878,-0.04939 0.15875,-0.130527 0.0635,-0.08467 0.0635,-0.208139 0,-0.112888 -0.07408,-0.183444 -0.07408,-0.07056 -0.194028,-0.112888 -0.116416,-0.04586 -0.271638,-0.07408 -0.151694,-0.03175 -0.313972,-0.0635 -0.158749,-0.03175 -0.313971,-0.07761 -0.151694,-0.04586 -0.271638,-0.123472 -0.116417,-0.08114 -0.1905,-0.201083 -0.07408,-0.119944 -0.07408,-0.303388 0,-0.194028 0.08467,-0.335139 0.08467,-0.14111 0.225778,-0.232832 0.14111,-0.09172 0.317499,-0.137583 Q 30.477351,62 30.664323,62 q 0.222249,0 0.409221,0.05292 0.186972,0.04939 0.321027,0.155222 0.137583,0.102305 0.215194,0.261055 0.07761,0.15875 0.08467,0.370416 h -0.349249 q -0.0071,-0.275166 -0.194028,-0.416277 -0.186972,-0.141111 -0.486832,-0.141111 -0.116416,0 -0.232833,0.02822 -0.116416,0.0247 -0.208138,0.08114 -0.09172,0.05292 -0.148167,0.137583 -0.05644,0.08114 -0.05644,0.1905 0,0.134055 0.07408,0.215194 0.07408,0.08114 0.194028,0.134055 0.123472,0.05292 0.278693,0.08819 0.155222,0.03175 0.3175,0.06703 0.165805,0.03175 0.321027,0.07408 0.155222,0.04233 0.275166,0.112889 0.123472,0.07055 0.197555,0.183444 0.07408,0.10936 0.07408,0.278693 0,0.211667 -0.09525,0.352777 -0.09525,0.141111 -0.250471,0.225778 -0.151694,0.08467 -0.342194,0.119944 -0.186972,0.03528 -0.377471,0.03528 -0.22225,0 -0.419805,-0.04233 -0.194027,-0.04233 -0.342194,-0.137583 -0.144638,-0.09878 -0.229305,-0.253999 -0.08467,-0.155222 -0.08819,-0.377472 z" />
    <path
       style="fill:#bbbbbb;stroke-width:0.264583"
       d="m 24.923343,62.067026 h 0.412749 l 0.836082,1.128887 0.832554,-1.128887 h 0.412749 l -1.061859,1.379358 h -0.0035 v 1.090081 H 25.98523 v -1.090081 z" />
    <path
       style="fill:#bbbbbb;stroke-width:0.264583"
       d="m 20.366888,62.067026 v 1.20297 l 1.545163,-1.20297 h 0.45861 l -1.691277,1.333002 1.82886,1.136437 h -0.570397 l -1.523046,-0.928299 -0.04791,0.0393 v 0.888998 H 20 v -2.469439 z" />
    <path
       style="fill:#bbbbbb;stroke-width:0.264583"
       d="m 24.590891,62.067 v 0.275166 h -1.439112 v 0.829026 h 1.439112 v 0.271638 h -1.439112 v 0.818443 h 1.439112 v 0.275166 h -1.806 V 62.067 Z" />
  </g>
</svg>
