<?xml version="1.0" encoding="UTF-8" standalone="no"?>

<svg
   width="15.419329mm"
   height="2.6246541mm"
   viewBox="0 0 15.419329 2.6246541"
   version="1.1"
   id="svg1"
   xmlns="http://www.w3.org/2000/svg"
   xmlns:svg="http://www.w3.org/2000/svg">
  <g
     transform="translate(-19.999999,-65.999999)">
    <path
       style="fill:#bbbbbb;stroke-width:0.264583"
       d="m 33.387332,66.077603 v 1.114775 h 1.665108 v -1.114775 h 0.366888 v 2.469439 H 35.05244 v -1.023054 h -1.665108 v 1.023054 h -0.366888 v -2.469439 z" />
    <path
       style="fill:#bbbbbb;stroke-width:0.264583"
       d="m 32.608189,67.714905 c -0.0047,0.15287 -0.02404,0.236416 -0.09927,0.358712 -0.07526,0.119944 -0.174036,0.201786 -0.296332,0.286453 -0.119945,0.08467 -0.257528,0.149342 -0.412749,0.194027 -0.155222,0.04704 -0.315148,0.07056 -0.479777,0.07056 -0.214018,0 -0.393429,-0.03057 -0.567466,-0.09172 -0.174037,-0.0635 -0.323379,-0.15287 -0.448027,-0.268111 -0.124648,-0.115241 -0.221074,-0.252824 -0.289277,-0.412749 -0.0682,-0.162277 -0.102306,-0.341018 -0.102306,-0.536221 0,-0.202259 0.03293,-0.384527 0.09878,-0.546805 0.06585,-0.162277 0.159927,-0.29986 0.282222,-0.412749 0.122296,-0.11524 0.270462,-0.203434 0.444499,-0.264582 C 30.912519,66.030573 31.094282,66 31.313003,66 c 0.174037,0 0.338666,0.01881 0.493888,0.05644 0.155222,0.03763 0.290453,0.08698 0.405694,0.164593 0.117592,0.07761 0.231161,0.199688 0.278693,0.278291 0.06229,0.08067 0.09668,0.169664 0.109361,0.334009 h -0.345721 c -0.0147,-0.111107 -0.03173,-0.124695 -0.08819,-0.207009 -0.05645,-0.08467 -0.129354,-0.134829 -0.218722,-0.18657 -0.08702,-0.05174 -0.185796,-0.0811 -0.296333,-0.10462 -0.110537,-0.02587 -0.221073,-0.03881 -0.33161,-0.03881 -0.155222,0 -0.284069,0.02587 -0.415772,0.07761 -0.131703,0.04939 -0.245768,0.118766 -0.342194,0.208139 -0.09407,0.08937 -0.168157,0.197555 -0.222249,0.324555 -0.05174,0.124647 -0.07761,0.261054 -0.07761,0.409221 0,0.148166 0.02587,0.284573 0.07761,0.409221 0.05409,0.122296 0.128176,0.228129 0.222249,0.317499 0.09643,0.08937 0.210491,0.15875 0.342194,0.208139 0.131703,0.04939 0.26055,0.07408 0.415772,0.07408 0.101129,0 0.206962,-0.01529 0.317499,-0.04586 0.112889,-0.03057 0.21637,-0.07526 0.310444,-0.134055 0.09407,-0.05879 0.171685,-0.110062 0.232833,-0.194731 0.06115,-0.08467 0.0734,-0.127055 0.07811,-0.23524 z" />
    <path
       style="fill:#bbbbbb;stroke-width:0.264583"
       d="m 26.653375,66.077603 h 0.366888 v 2.469439 h -0.366888 z" />
    <path
       style="fill:#bbbbbb;stroke-width:0.264583"
       d="m 23.936989,66.077603 h 0.08114 v -0.0035 h 0.903109 q 0.373943,0 0.659693,0.0635 0.289277,0.0635 0.483304,0.208138 0.194028,0.144639 0.292805,0.377471 0.102306,0.232833 0.102306,0.571499 0,0.338666 -0.102306,0.578555 -0.09878,0.23636 -0.292805,0.388054 -0.194027,0.148167 -0.483304,0.218722 -0.28575,0.06703 -0.659693,0.06703 h -0.984249 z m 0.366888,0.278693 v 1.908524 h 0.55386 q 0.285749,0 0.515054,-0.03528 0.229305,-0.0388 0.391583,-0.144638 0.165805,-0.105833 0.253999,-0.292805 0.0882,-0.1905 0.0882,-0.493888 0,-0.29986 -0.0882,-0.483304 -0.08819,-0.186972 -0.253999,-0.289278 -0.162278,-0.102305 -0.391583,-0.134055 -0.229305,-0.03528 -0.515054,-0.03528 z" />
    <path
       style="fill:#bbbbbb;stroke-width:0.264583"
       d="m 23.217324,66.077603 h 0.366888 v 2.469439 h -0.366888 z" />
    <path
       style="fill:#bbbbbb;stroke-width:0.264583"
       d="m 20.388055,66.077603 1.079498,2.091967 1.079497,-2.091967 h 0.388055 v 2.469439 h -0.366888 v -1.75683 l -0.906637,1.75683 h -0.388055 l -0.906637,-1.75683 v 1.75683 H 20 v -2.469439 z" />
  </g>
</svg>
