<?xml version="1.0" encoding="UTF-8" standalone="no"?>

<svg
   width="10.665996mm"
   height="2.5399954mm"
   viewBox="0 0 10.665996 2.5399955"
   version="1.1"
   id="svg1"
   xmlns="http://www.w3.org/2000/svg"
   xmlns:svg="http://www.w3.org/2000/svg">
  <g
     transform="translate(-23.230999,-28.126951)">
    <path
       style="fill:#bbbbbb;stroke-width:0.264583"
       d="m 33.897,28.126953 v 0.275166 h -1.439112 v 0.829026 H 33.897 v 0.271638 h -1.439112 v 0.818443 H 33.897 v 0.275166 h -1.806 v -2.469439 z" />
    <path
       style="fill:#bbbbbb;stroke-width:0.264583"
       d="m 29.408294,28.126953 h 2.370662 v 0.33161 h -1.015998 v 2.137829 H 30.39607 v -2.137829 h -0.991304 z" />
    <path
       style="fill:#bbbbbb;stroke-width:0.264583"
       d="m 27.050886,28.126953 v 1.269997 q 0,0.208138 0.0388,0.384527 0.04233,0.172861 0.134056,0.29986 0.09172,0.127 0.243416,0.201083 0.155222,0.07056 0.384527,0.07056 0.211666,0 0.366888,-0.06703 0.155222,-0.06703 0.253999,-0.186972 0.09878,-0.119944 0.144639,-0.282222 0.04939,-0.165805 0.04939,-0.36336 v -1.326441 h 0.366888 v 1.414635 q 0,0.261055 -0.07761,0.469194 -0.07408,0.208138 -0.225778,0.352777 -0.148166,0.144638 -0.370415,0.225777 -0.218722,0.07761 -0.507999,0.07761 -0.292805,0 -0.511527,-0.07761 -0.218722,-0.08114 -0.366888,-0.229305 Q 26.828633,30.211867 26.75455,30.003728 26.684,29.79559 26.684,29.54159 v -1.414635 z" />
    <path
       style="fill:#bbbbbb;stroke-width:0.264583"
       d="m 23.619055,28.126953 1.079498,2.091967 1.079497,-2.091967 h 0.388055 v 2.469439 h -0.366888 v -1.75683 l -0.906637,1.75683 h -0.388055 l -0.906636,-1.75683 v 1.75683 H 23.231 v -2.469439 z" />
  </g>
</svg>
