<?xml version="1.0" encoding="UTF-8" standalone="no"?>

<svg
   width="7.1259799mm"
   height="2.469439mm"
   viewBox="0 0 7.1259799 2.469439"
   version="1.1"
   id="svg1"
   xmlns="http://www.w3.org/2000/svg"
   xmlns:svg="http://www.w3.org/2000/svg">
  <g
     transform="translate(-19.999999,-50.000005)">
    <path
       style="fill:#bbbbbb;stroke-width:0.264583"
       d="M 24.737677,52.469439 V 50 h 0.338666 v 0.01411 L 25.097513,50 26.787314,51.943801 V 50 h 0.338666 v 2.469439 h -0.359835 l -1.689802,-1.933218 v 1.933218 z" />
    <path
       style="fill:#bbbbbb;stroke-width:0.264583"
       d="m 22.885598,50 h 0.384527 l 1.273525,2.469439 h -0.384527 l -0.289277,-0.560916 h -1.59808 l -0.289277,0.560916 h -0.370416 z m -0.45861,1.605135 h 1.287636 L 23.07257,50.359832 Z" />
    <path
       style="fill:#bbbbbb;stroke-width:0.264583"
       d="M 20,52.469439 V 50 h 1.231191 q 0.201083,0 0.366889,0.04939 0.169333,0.04586 0.289277,0.141111 0.123472,0.09172 0.190499,0.229305 0.06703,0.134056 0.06703,0.310444 0,0.1905 -0.07055,0.33161 -0.06703,0.141111 -0.1905,0.232833 -0.123472,0.08819 -0.292805,0.134056 -0.165805,0.04233 -0.359833,0.04233 h -0.864303 v 0.998359 z m 0.366888,-2.187218 v 0.906637 h 0.730248 q 0.127,0 0.250472,-0.01764 0.123472,-0.02117 0.218722,-0.07055 0.09878,-0.04939 0.158749,-0.137583 0.05997,-0.09172 0.05997,-0.236361 0,-0.144638 -0.0635,-0.229305 -0.05997,-0.08819 -0.15875,-0.134055 -0.09878,-0.04939 -0.22225,-0.0635 -0.123472,-0.01764 -0.250471,-0.01764 z" />
  </g>
</svg>
