<?xml version="1.0" encoding="UTF-8" standalone="no"?>

<svg
   width="9.373126mm"
   height="2.469439mm"
   viewBox="0 0 9.373126 2.469439"
   version="1.1"
   id="svg1"
   xmlns="http://www.w3.org/2000/svg"
   xmlns:svg="http://www.w3.org/2000/svg">
  <g
     transform="translate(-19.999999,-38.000001)">
    <path
       style="fill:#bbbbbb;stroke-width:0.264583"
       d="m 27.002465,38 h 2.370662 v 0.331611 h -1.015998 v 2.137828 h -0.366888 v -2.137828 h -0.991303 z" />
    <path
       style="fill:#bbbbbb;stroke-width:0.264583"
       d="m 24.755274,38 h 1.210025 q 0.451555,0 0.684388,0.179917 0.232833,0.179916 0.232833,0.532693 0,0.246944 -0.123472,0.416277 -0.119945,0.169333 -0.328083,0.250471 0.243416,0.08114 0.342194,0.268111 0.09878,0.186972 0.09525,0.52211 0,0.0388 0,0.08114 0,0.04233 0,0.08467 0.0035,0.04233 0.01058,0.07761 0.01058,0.03528 0.03175,0.05644 h -0.366888 q -0.03881,-0.03528 -0.04233,-0.119944 0,-0.08819 0,-0.158749 0,-0.236361 -0.0388,-0.377472 -0.03881,-0.141111 -0.134055,-0.215194 -0.09525,-0.07761 -0.261055,-0.102305 -0.165806,-0.0247 -0.419805,-0.0247 h -0.525638 v 0.998359 H 24.75528 Z m 0.366888,0.282222 v 0.906637 h 0.71261 q 0.162277,0 0.289277,-0.02117 0.127,-0.02117 0.215194,-0.07408 0.09172,-0.05292 0.137583,-0.141111 0.04939,-0.09172 0.04939,-0.225777 0,-0.141111 -0.05292,-0.229305 -0.05292,-0.08819 -0.148166,-0.134055 -0.09525,-0.04939 -0.22225,-0.0635 -0.126999,-0.01764 -0.275166,-0.01764 z" />
    <path
       style="fill:#bbbbbb;stroke-width:0.264583"
       d="m 22.885556,38 h 0.384527 l 1.273525,2.469439 h -0.384527 l -0.289277,-0.560915 h -1.59808 l -0.289277,0.560915 h -0.370416 z m -0.45861,1.605136 h 1.287636 l -0.642054,-1.245303 z" />
    <path
       style="fill:#bbbbbb;stroke-width:0.264583"
       d="M 20,40.469439 V 38 h 1.231192 q 0.201083,0 0.366888,0.04939 0.169333,0.04586 0.289277,0.141111 0.123472,0.09172 0.1905,0.229305 0.06703,0.134055 0.06703,0.310444 0,0.190499 -0.07055,0.33161 -0.06703,0.141111 -0.1905,0.232833 -0.123472,0.08819 -0.292805,0.134055 -0.165805,0.04233 -0.359832,0.04233 h -0.864312 v 0.998359 z m 0.366888,-2.187217 v 0.906637 h 0.730249 q 0.126999,0 0.250471,-0.01764 0.123472,-0.02117 0.218722,-0.07056 0.09878,-0.04939 0.15875,-0.137583 0.05997,-0.09172 0.05997,-0.236361 0,-0.144639 -0.0635,-0.229305 -0.05997,-0.08819 -0.15875,-0.134055 -0.09878,-0.04939 -0.222249,-0.0635 -0.123472,-0.01764 -0.250472,-0.01764 z" />
  </g>
</svg>
