<?xml version="1.0" encoding="UTF-8" standalone="no"?>

<svg
   width="14.47929mm"
   height="2.6211338mm"
   viewBox="0 0 14.47929 2.6211338"
   version="1.1"
   id="svg1"
   xmlns="http://www.w3.org/2000/svg"
   xmlns:svg="http://www.w3.org/2000/svg">
  <g
     transform="translate(-20,-75.000002)">
    <path
       style="fill:#bbbbbb;stroke-width:0.264583"
       d="m 32.323825,75.074081 h 1.210025 q 0.451555,0 0.684388,0.179916 0.232832,0.179917 0.232832,0.532694 0,0.246944 -0.123472,0.416277 -0.119944,0.169333 -0.328082,0.250471 0.243416,0.08114 0.342193,0.268111 0.09878,0.186972 0.09525,0.52211 0,0.0388 0,0.08114 0,0.04233 0,0.08467 0.0035,0.04233 0.01058,0.07761 0.01058,0.03528 0.03175,0.05644 H 34.1124 q -0.03881,-0.03528 -0.04233,-0.119944 0,-0.08819 0,-0.15875 0,-0.23636 -0.03881,-0.377471 -0.03881,-0.141111 -0.134056,-0.215194 -0.09525,-0.07761 -0.261055,-0.102305 -0.165805,-0.02469 -0.419804,-0.02469 h -0.525638 v 0.998359 h -0.366888 z m 0.366888,0.282222 v 0.906637 h 0.71261 q 0.162277,0 0.289277,-0.02117 0.127,-0.02117 0.215194,-0.07408 0.09172,-0.05292 0.137583,-0.141111 0.04939,-0.09172 0.04939,-0.225777 0,-0.141111 -0.05292,-0.229305 -0.05292,-0.08819 -0.148166,-0.134055 -0.09525,-0.04939 -0.22225,-0.0635 -0.127,-0.01764 -0.275166,-0.01764 z" />
    <path
       style="fill:#bbbbbb;stroke-width:0.264583"
       d="m 25.517435,75.074081 0.878414,2.042579 0.878415,-2.042579 h 0.366888 l 0.878415,2.042579 0.878415,-2.042579 h 0.366888 l -1.061859,2.469439 h -0.366888 l -0.878415,-2.042579 -0.878414,2.042579 h -0.366889 l -1.061858,-2.469439 z" />
    <path
       style="fill:#bbbbbb;stroke-width:0.264583"
       d="m 20,77.54352 v -2.469439 h 1.231192 q 0.201083,0 0.366888,0.04939 0.169333,0.04586 0.289277,0.141111 0.123472,0.09172 0.1905,0.229305 0.06703,0.134055 0.06703,0.310444 0,0.190499 -0.07055,0.33161 -0.06703,0.141111 -0.1905,0.232833 -0.123472,0.08819 -0.292805,0.134055 -0.165805,0.04233 -0.359832,0.04233 h -0.864304 v 0.998359 z m 0.366888,-2.187217 v 0.906637 h 0.730248 q 0.127,0 0.250472,-0.01764 0.123472,-0.02117 0.218722,-0.07056 0.09878,-0.04939 0.15875,-0.137583 0.05997,-0.09172 0.05997,-0.23636 0,-0.144639 -0.0635,-0.229305 -0.05997,-0.08819 -0.15875,-0.134055 -0.09878,-0.04939 -0.222249,-0.0635 -0.123472,-0.01764 -0.250472,-0.01764 z" />
    <path
       style="fill:#bbbbbb;stroke-width:0.264583"
       d="m 31.882696,75.046772 v 0.275166 h -1.439112 v 0.829026 h 1.439112 v 0.271638 h -1.439112 v 0.818443 h 1.439112 v 0.275166 h -1.806 v -2.469439 z" />
    <path
       style="fill:#bbbbbb;stroke-width:0.264583"
       d="m 23.707375,77.621131 c -0.199907,0 -0.327237,-0.03057 -0.498922,-0.09172 -0.169333,-0.0635 -0.317499,-0.15287 -0.444499,-0.26811 -0.124648,-0.115241 -0.222249,-0.252824 -0.292805,-0.412749 -0.07056,-0.162277 -0.105833,-0.341018 -0.105833,-0.536221 0,-0.197555 0.0341,-0.376296 0.102305,-0.536221 0.07056,-0.162277 0.168157,-0.29986 0.292805,-0.412749 C 22.885074,75.24812 23.032065,75.15875 23.201397,75.09525 23.373082,75.03175 23.502764,75 23.707375,75 c 0.195203,0 0.31783,0.03175 0.484812,0.09525 0.16698,0.0635 0.311619,0.15287 0.433916,0.268111 0.124647,0.11524 0.221073,0.253999 0.289277,0.416277 0.07056,0.159925 0.105833,0.33749 0.105833,0.532693 0,0.195203 -0.03528,0.372768 -0.105833,0.532693 -0.07056,0.159925 -0.166981,0.297508 -0.289277,0.412749 -0.122297,0.115241 -0.268112,0.204611 -0.437444,0.268111 -0.166982,0.0635 -0.288433,0.09525 -0.481284,0.09525 z m 0,-0.29986 c 0.15287,0 0.233164,-0.02469 0.357812,-0.07408 0.127,-0.04939 0.235185,-0.118766 0.324555,-0.208139 0.08937,-0.08937 0.158749,-0.195203 0.208138,-0.317499 0.04939,-0.124648 0.07408,-0.261055 0.07408,-0.409221 0,-0.148167 -0.02469,-0.284574 -0.07408,-0.409222 -0.04704,-0.124647 -0.115244,-0.231656 -0.20461,-0.321027 -0.08937,-0.08937 -0.197556,-0.158749 -0.324555,-0.208138 -0.124648,-0.05174 -0.206118,-0.07761 -0.36134,-0.07761 -0.155222,0 -0.239043,0.02469 -0.368395,0.07408 -0.129351,0.04939 -0.239888,0.119942 -0.33161,0.211666 -0.09172,0.08937 -0.163453,0.19638 -0.215194,0.321027 -0.05174,0.124648 -0.07761,0.261055 -0.07761,0.409222 0,0.148166 0.02587,0.284573 0.07761,0.409221 0.05409,0.122296 0.127001,0.228129 0.218721,0.317499 0.09407,0.08937 0.204611,0.15875 0.331611,0.208139 0.129352,0.04939 0.211997,0.07408 0.364867,0.07408 z" />
  </g>
</svg>
