<?xml version="1.0" encoding="UTF-8" standalone="no"?>

<svg
   width="14.187205mm"
   height="2.4695077mm"
   viewBox="0 0 14.187205 2.4695077"
   version="1.1"
   id="svg1"
   xmlns="http://www.w3.org/2000/svg"
   xmlns:svg="http://www.w3.org/2000/svg">
  <g
     transform="translate(-20,-53.999999)">
    <path
       style="fill:#bbbbbb;stroke-width:0.264583"
       d="m 32.366875,54.000054 v 0.0035 h 0.878414 q 0.172861,0 0.328083,0.04586 0.155222,0.04586 0.268111,0.130528 0.112888,0.08467 0.179916,0.211666 0.06703,0.123472 0.06703,0.282222 0,0.222249 -0.102305,0.366888 -0.102305,0.144638 -0.278694,0.222249 0.225778,0.05997 0.352777,0.204611 0.127,0.141111 0.127,0.36336 0,0.169333 -0.07055,0.289277 -0.07056,0.119945 -0.186972,0.197556 -0.112889,0.07408 -0.261055,0.112888 -0.148167,0.03528 -0.303388,0.03528 h -0.998367 v 0.0035 H 31.999987 V 54 Z m 0.744359,1.382886 q -0.186972,0 -0.373943,0 -0.183445,0 -0.370416,0.0071 v 0.779637 h 0.557387 0.1905 q 0.134055,0 0.264583,-0.01058 0.130527,-0.01058 0.229305,-0.04939 0.102305,-0.03881 0.162277,-0.116416 0.0635,-0.07761 0.0635,-0.215194 0,-0.134055 -0.0635,-0.211666 -0.05997,-0.07761 -0.162277,-0.116417 -0.102306,-0.04233 -0.232833,-0.05292 -0.127,-0.01411 -0.264583,-0.01411 z m -0.744359,-1.083026 v 0.871359 h 0.75847 q 0.123472,0 0.232833,-0.02117 0.109361,-0.0247 0.1905,-0.07761 0.08467,-0.05645 0.130527,-0.141111 0.04939,-0.08819 0.04939,-0.215194 0,-0.127 -0.04939,-0.204611 -0.04939,-0.08114 -0.134055,-0.126999 -0.08114,-0.04939 -0.186972,-0.06703 -0.105833,-0.01764 -0.222249,-0.01764 z" />
    <path
       style="fill:#bbbbbb;stroke-width:0.264583"
       d="m 29.617037,54.000054 h 1.210025 q 0.451554,0 0.684387,0.179916 0.232833,0.179916 0.232833,0.532693 0,0.246944 -0.123472,0.416277 -0.119944,0.169333 -0.328082,0.250472 0.243416,0.08114 0.342193,0.26811 0.09878,0.186972 0.09525,0.52211 0,0.03881 0,0.08114 0,0.04233 0,0.08467 0.0035,0.04233 0.01058,0.07761 0.01058,0.03528 0.03175,0.05645 h -0.366888 q -0.0388,-0.03528 -0.04233,-0.119944 0,-0.08819 0,-0.15875 0,-0.236361 -0.03881,-0.377472 -0.0388,-0.14111 -0.134055,-0.215193 -0.09525,-0.07761 -0.261055,-0.102306 -0.165805,-0.02469 -0.419804,-0.02469 h -0.525638 v 0.998359 h -0.366888 z m 0.366888,0.282221 v 0.906637 h 0.712609 q 0.162278,0 0.289278,-0.02117 0.126999,-0.02117 0.215193,-0.07408 0.09172,-0.05292 0.137584,-0.14111 0.04939,-0.09172 0.04939,-0.225778 0,-0.14111 -0.05292,-0.229305 -0.05292,-0.08819 -0.148167,-0.134055 -0.09525,-0.04939 -0.222249,-0.0635 -0.127,-0.01764 -0.275166,-0.01764 z" />
    <path
       style="fill:#bbbbbb;stroke-width:0.264583"
       d="m 24.901151,54.000054 0.991304,2.095495 0.991303,-2.095495 h 0.366888 l -1.167692,2.469439 h -0.380999 l -1.167692,-2.469439 z" />
    <path
       style="fill:#bbbbbb;stroke-width:0.264583"
       d="m 20.000004,54.000054 h 1.210025 q 0.451554,0 0.684387,0.179916 0.232833,0.179916 0.232833,0.532693 0,0.246944 -0.123472,0.416277 -0.119944,0.169333 -0.328083,0.250472 0.243417,0.08114 0.342194,0.26811 0.09878,0.186972 0.09525,0.52211 0,0.03881 0,0.08114 0,0.04233 0,0.08467 0.0035,0.04233 0.01058,0.07761 0.01058,0.03528 0.03175,0.05645 H 21.78858 q -0.0388,-0.03528 -0.04233,-0.119944 0,-0.08819 0,-0.15875 0,-0.236361 -0.03881,-0.377472 -0.0388,-0.14111 -0.134055,-0.215193 -0.09525,-0.07761 -0.261055,-0.102306 -0.165805,-0.02469 -0.419804,-0.02469 h -0.525638 v 0.998359 H 20 Z m 0.366888,0.282221 v 0.906637 h 0.712609 q 0.162278,0 0.289277,-0.02117 0.127,-0.02117 0.215194,-0.07408 0.09172,-0.05292 0.137583,-0.14111 0.04939,-0.09172 0.04939,-0.225778 0,-0.14111 -0.05292,-0.229305 -0.05292,-0.08819 -0.148167,-0.134055 -0.09525,-0.04939 -0.222249,-0.0635 -0.127,-0.01764 -0.275166,-0.01764 z" />
    <path
       style="fill:#bbbbbb;stroke-width:0.264583"
       d="m 24.232763,54 v 0.275166 h -1.439112 v 0.829026 h 1.439112 v 0.271638 h -1.439112 v 0.818443 h 1.439112 v 0.275166 h -1.806 V 54 Z" />
    <path
       style="fill:#bbbbbb;stroke-width:0.264583"
       d="m 29.306619,54 v 0.275166 h -1.439112 v 0.829026 h 1.439112 v 0.271638 h -1.439112 v 0.818443 h 1.439112 v 0.275166 h -1.806 V 54 Z" />
  </g>
</svg>
