<?xml version="1.0" encoding="UTF-8" standalone="no"?>

<svg
   width="24.649561mm"
   height="3.4854381mm"
   viewBox="0 0 24.649561 3.4854381"
   version="1.1"
   id="svg1"
   xmlns="http://www.w3.org/2000/svg"
   xmlns:svg="http://www.w3.org/2000/svg">
  <g
     transform="translate(-54.273171,-81.861183)">
    <path
       style="fill:#ee9933;stroke-width:0.264583"
       d="m 73.295251,85.259483 h 0.449438 l 0.270581,-1.274939 1.151114,1.274939 0.669572,-4.83e-4 -1.219905,-1.306558 1.490486,-0.995186 h -0.642056 l -1.430867,0.944738 0.417337,-1.953683 h -0.449439 z" />
    <path
       style="fill:#ee9933;stroke-width:0.264583"
       d="m 68.759067,85.259483 h 0.449439 l 0.238478,-1.114425 c 0.142169,-0.678744 0.632883,-0.963083 1.027289,-0.963083 0.41275,0 0.564091,0.279753 0.43568,0.898878 l -0.252236,1.17863 h 0.449439 l 0.224719,-1.050219 c 0.160514,-0.756708 0.619125,-1.027289 1.013531,-1.027289 0.490714,0 0.573264,0.366889 0.454025,0.926394 l -0.243064,1.151114 h 0.449439 l 0.279753,-1.3208 c 0.160514,-0.747536 -0.174273,-1.068564 -0.830086,-1.068564 -0.426509,0 -0.839259,0.261409 -1.07315,0.57785 -0.05045,-0.389819 -0.3302,-0.57785 -0.715434,-0.57785 -0.376061,0 -0.738364,0.14217 -1.07315,0.4953 h -0.0092 c 0.0321,-0.160513 0.05503,-0.293511 0.06879,-0.408163 h -0.421923 c -0.0321,0.183444 -0.05503,0.348544 -0.09172,0.522816 z" />
    <path
       style="fill:#ee9933;stroke-width:0.264583"
       d="m 66.134087,83.952442 h 0.463197 c 0.178858,-0.321028 0.541161,-0.467784 0.889705,-0.467784 0.444853,0 0.88512,0.220134 0.779639,0.729192 -0.10548,0.4953 -0.614539,0.756708 -1.128183,0.756708 -0.408164,0 -0.733778,-0.1651 -0.664986,-0.564091 h -0.504472 c -0.155928,0.724605 0.536575,0.940152 1.137355,0.940152 0.72002,0 1.467556,-0.334786 1.637242,-1.151113 0.1651,-0.770467 -0.463197,-1.086909 -1.018117,-1.086909 -0.376061,0 -0.678744,0.08255 -1.027289,0.353131 l 0.270581,-0.999772 h 1.958269 l 0.07796,-0.376062 h -2.39395 z" />
    <path
       style="fill:#ee9933;stroke-width:0.264583"
       d="m 63.215596,83.952442 h 0.463197 c 0.178859,-0.321028 0.541161,-0.467784 0.889706,-0.467784 0.444852,0 0.885119,0.220134 0.779639,0.729192 -0.105481,0.4953 -0.614539,0.756708 -1.128184,0.756708 -0.408164,0 -0.733777,-0.1651 -0.664986,-0.564091 h -0.504472 c -0.155928,0.724605 0.536575,0.940152 1.137356,0.940152 0.720019,0 1.467555,-0.334786 1.637241,-1.151113 0.1651,-0.770467 -0.463197,-1.086909 -1.018117,-1.086909 -0.376061,0 -0.678744,0.08255 -1.027288,0.353131 l 0.27058,-0.999772 h 1.95827 l 0.07796,-0.376062 h -2.393949 z" />
    <path
       style="fill:#ee9933;stroke-width:0.264583"
       d="m 61.271851,83.953299 h 1.540933 l 0.08714,-0.403578 h -1.540933 z" />
    <path
       style="fill:#ee9933;stroke-width:0.264583"
       d="m 60.401573,84.337675 c -0.174272,0.431094 -0.792692,0.587408 -1.246717,0.587408 -0.756708,0 -1.088065,-0.3654 -0.890863,-1.296381 0.197203,-0.93098 0.853017,-1.366661 1.609725,-1.366661 0.458612,0 0.812194,0.126537 0.803022,0.557631 h 0.531989 c 0.08255,-0.564091 -0.435681,-0.958497 -1.219906,-0.958497 -1.389591,0 -2.06375,0.953911 -2.233436,1.742722 -0.192616,0.912636 0.174272,1.742722 1.357489,1.742722 0.811742,0 1.559278,-0.279752 1.820686,-1.008944 z" />
    <path
       style="fill:#ee9933;stroke-width:0.264583"
       d="m 57.605814,82.828844 c 0.114652,-0.761294 -0.568678,-0.967669 -1.256595,-0.967669 -0.903464,0 -1.522589,0.366889 -1.660172,1.004358 -0.293511,1.385006 2.41688,0.55492 2.224264,1.472142 -0.07796,0.362303 -0.588389,0.586111 -1.276305,0.586111 -0.628298,0 -0.929615,-0.21005 -0.847065,-0.654903 h -0.504472 c -0.09631,0.729192 0.376061,1.077736 1.316214,1.077736 0.981428,0 1.655586,-0.398991 1.797756,-1.059391 0.08714,-0.408164 -0.09631,-0.715434 -0.609953,-0.807156 l -1.192389,-0.210961 c -0.38982,-0.06879 -0.451504,-0.217157 -0.414815,-0.396015 0.08255,-0.366889 0.632639,-0.577395 1.105009,-0.577395 0.536575,0 0.864498,0.06995 0.81405,0.533143 z" />
    <path
       style="fill:#ee9933;stroke-width:0.264583"
       d="m 78.922644,82.398145 9.2e-5,-0.45 H 76.50869 l -2.23e-4,0.45 z m -2.61228,2.861338 h 0.476956 l 0.706261,-3.311172 h -0.476956 z m 2.084945,-4.83e-4 9.2e-5,-0.45 h -2.414046 l -2.23e-4,0.45 z m -0.931128,4.83e-4 h 0.476955 l 0.706261,-3.311172 h -0.476955 z" />
  </g>
</svg>
