<?xml version="1.0" encoding="UTF-8" standalone="no"?>

<svg
   width="15.780885mm"
   height="2.6211338mm"
   viewBox="0 0 15.780885 2.6211338"
   version="1.1"
   id="svg1"
   xmlns="http://www.w3.org/2000/svg"
   xmlns:svg="http://www.w3.org/2000/svg">
  <g
     transform="translate(-19.999999,-80.000009)">
    <path
       style="fill:#bbbbbb;stroke-width:0.264583"
       d="m 31.066096,80.074081 1.079497,2.091968 1.079498,-2.091968 h 0.388055 v 2.469439 h -0.366888 v -1.756829 l -0.906637,1.756829 h -0.388055 l -0.906637,-1.756829 v 1.756829 h -0.366888 v -2.469439 z" />
    <path
       style="fill:#bbbbbb;stroke-width:0.264583"
       d="m 28.377935,80.074081 v 1.269998 q 0,0.208138 0.0388,0.384527 0.04233,0.17286 0.134055,0.29986 0.09172,0.127 0.243417,0.201083 0.155221,0.07055 0.384526,0.07055 0.211667,0 0.366889,-0.06703 0.155221,-0.06703 0.253999,-0.186972 0.09878,-0.119944 0.144639,-0.282222 0.04939,-0.165805 0.04939,-0.36336 v -1.326442 h 0.366888 v 1.414636 q 0,0.261055 -0.07761,0.469194 -0.07408,0.208138 -0.225778,0.352777 -0.148166,0.144638 -0.370416,0.225777 -0.218721,0.07761 -0.507999,0.07761 -0.292804,0 -0.511526,-0.07761 -0.218722,-0.08114 -0.366888,-0.229305 -0.144639,-0.148167 -0.218722,-0.356305 -0.07056,-0.208138 -0.07056,-0.462138 v -1.414636 z" />
    <path
       style="fill:#bbbbbb;stroke-width:0.264583"
       d="m 20.366888,80.074081 0.991304,2.095496 0.991303,-2.095496 h 0.366888 L 21.548691,82.54352 H 21.167692 L 20,80.074081 Z" />
    <path
       style="fill:#bbbbbb;stroke-width:0.264583"
       d="m 35.780885,80.046772 v 0.275166 h -1.439112 v 0.829026 h 1.439112 v 0.271638 h -1.439112 v 0.818443 h 1.439112 v 0.275166 h -1.806 v -2.469439 z" />
    <path
       style="fill:#bbbbbb;stroke-width:0.264583"
       d="m 25.790226,80 h 0.366888 v 2.137829 h 1.50899 v 0.33161 h -1.875878 z" />
    <path
       style="fill:#bbbbbb;stroke-width:0.264583"
       d="m 24.096226,82.621131 c -0.199907,0 -0.327237,-0.03057 -0.498922,-0.09172 -0.169333,-0.0635 -0.317499,-0.15287 -0.444499,-0.26811 C 23.028157,82.14606 22.930556,82.008477 22.86,81.848552 c -0.07056,-0.162277 -0.105833,-0.341018 -0.105833,-0.536221 0,-0.197555 0.0341,-0.376296 0.102305,-0.536221 0.07056,-0.162277 0.168157,-0.29986 0.292805,-0.412749 C 23.273925,80.24812 23.420916,80.15875 23.590248,80.09525 23.761933,80.03175 23.891615,80 24.096226,80 c 0.195203,0 0.31783,0.03175 0.484812,0.09525 0.16698,0.0635 0.311619,0.15287 0.433916,0.268111 0.124647,0.11524 0.221073,0.253999 0.289277,0.416277 0.07056,0.159925 0.105833,0.33749 0.105833,0.532693 0,0.195203 -0.03528,0.372768 -0.105833,0.532693 -0.07056,0.159925 -0.166981,0.297508 -0.289277,0.412749 -0.122297,0.115241 -0.268112,0.204611 -0.437444,0.268111 -0.166982,0.0635 -0.288433,0.09525 -0.481284,0.09525 z m 0,-0.29986 c 0.15287,0 0.233164,-0.02469 0.357812,-0.07408 0.127,-0.04939 0.235185,-0.118766 0.324555,-0.208139 0.08937,-0.08937 0.158749,-0.195203 0.208138,-0.317499 0.04939,-0.124648 0.07408,-0.261055 0.07408,-0.409221 0,-0.148167 -0.02469,-0.284574 -0.07408,-0.409222 -0.04704,-0.124647 -0.115244,-0.231656 -0.20461,-0.321027 -0.08937,-0.08937 -0.197556,-0.158749 -0.324555,-0.208138 -0.124648,-0.05174 -0.206118,-0.07761 -0.36134,-0.07761 -0.155222,0 -0.239043,0.02469 -0.368395,0.07408 -0.129351,0.04939 -0.239888,0.119942 -0.33161,0.211666 -0.09172,0.08937 -0.163453,0.19638 -0.215194,0.321027 -0.05174,0.124648 -0.07761,0.261055 -0.07761,0.409222 0,0.148166 0.02587,0.284573 0.07761,0.409221 0.05409,0.122296 0.127001,0.228129 0.218721,0.317499 0.09407,0.08937 0.204611,0.15875 0.331611,0.208139 0.129352,0.04939 0.211997,0.07408 0.364867,0.07408 z" />
  </g>
</svg>
